# xmcd
#
# Track frame offsets:
#	150
#	14410
#	21093
#	37828
#	51861
#	65249
#	82610
#	95476
#	110146
#	122236
#	138993
#	154022
#	172474
#	182935
#	199583
#	219261
#	231067
#	245753
#
# Disc length: 3434 seconds
#
# Revision: 0
# Processed by: cddbd v1.5.2PL0 Copyright (c) Steve Scherf et al.
# Submitted via: EasyCDDAExtractor 16.0.6.1
#
DISCID=fd0d6812
DTITLE=Γλυκερία - Εκατόν σαράντα μεγ. επιτυχίες-Γλυκερία 2
DYEAR=2010
DGENRE=Ποικίλη
TTITLE0=Γλυκερία-Μητσάκης Γιώργος - Τα δαχτυλίδια [Γιώργος Μπάτης]
TTITLE1=Γλυκερία - Θα πάω εκεί στην Αραπιά [Βασίλης Τσιτσάνης]
TTITLE2=Γλυκερία - Της γερακίνας γιός [Βασ. Τσιτσάνης-Κ. Βίρβος]
TTITLE3=Γλυκερία - Η πεντάμορφη [Απ. Χατζηχρήστος-Χαρ. Βασιλειάδης]
TTITLE4=Γλυκερία - Πάμε τσάρκα [Βασ. Τσιτσάνης]
TTITLE5=Γλυκερία - Στην Ανατολή [Μ. Θεοδωράκης]
TTITLE6=Γλυκερία - Μπουρνοβαλιά [παραδ., διασκ. Στέλ. Φωτιάδης]
TTITLE7=Γλυκερία - Κουκλάκι μου [Παν. Τούντας]
TTITLE8=Γλυκερία - Συ μού χάραξες πορεία [Απ. Καλδάρας]
TTITLE9=Γλυκερία - Στο έρημο λιμάνι [Μ. Θεοδωράκης-Χρ. Κολοκοτρώνης]
TTITLE10=Γλυκερία - Ανεστάκι [Νίκος Τάτσης-Λ. Παπαδόπουλος]
TTITLE11=Γλυκερία - Ο Μποχώρης [παραδ., διασκ. Στέλ. Φωτιάδης]
TTITLE12=Γλυκερία - Βάρα νταγερέ [Απ. Καλδάρας-Λ. Παπαδόπουλος]
TTITLE13=Γλυκερία - Βοριάς χτυπάει την πόρτα μου [Μ.Θεοδωράκης-Δημ.Χριστοδούλο
TTITLE13=υ]
TTITLE14=Γλυκερία - Όσο βαρούν τα σίδερα [παραδ. Κρήτης, διασκ. Στέλ. Φωτιάδης
TTITLE14=]
TTITLE15=Γλυκερία - Σ' τ' ορκίζομαι στο κύμα [Δημ. Σέμσης-Στέλ. Χρυσίνης]
TTITLE16=Γλυκερία - Λυγαριά [Γιώργος Κονιτόπουλος]
TTITLE17=Γλυκερία - Έλα να πάμε σ' ένα μέρος [Γιώργος Κονιτόπουλος]
EXTD=
EXTT0=
EXTT1=
EXTT2=
EXTT3=
EXTT4=
EXTT5=
EXTT6=
EXTT7=
EXTT8=
EXTT9=
EXTT10=
EXTT11=
EXTT12=
EXTT13=
EXTT14=
EXTT15=
EXTT16=
EXTT17=
PLAYORDER=
